<svg xmlns="http://www.w3.org/2000/svg" viewBox="0 0 292.75 288"><path d="M290.16,161.49A119.65,119.65,0,0,0,174.62,72.82a6,6,0,0,0-6,6v53.79H151.91V97.44a10,10,0,0,0-20,0v35.12H115.25V112a10,10,0,0,0-20,0v20.59H78.41V118.92a5.93,5.93,0,0,0-3-5.13L12,77.16c-4.06-2.35-9.27.12-9.27,4.93a77,77,0,0,0,30.7,61.48A77,77,0,0,0,2.72,205.05a6,6,0,0,0,8.91,5.14l63.42-36.62a6.26,6.26,0,0,0,3.36-5.36V152.56H95.25v22.88a10,10,0,0,0,20,0V152.56h16.66v36.65a10,10,0,0,0,20,0V152.56h16.76V208.5a5.94,5.94,0,0,0,6,5.93,161.21,161.21,0,0,0,114-47.21A5.92,5.92,0,0,0,290.16,161.49Zm-69-2.19a15.68,15.68,0,1,1,15.68-15.68A15.68,15.68,0,0,1,221.17,159.3Z"/></svg>