<svg xmlns="http://www.w3.org/2000/svg" width="530" height="416.92"><defs><radialGradient id="b" cx=".5" cy=".5" r=".693" gradientTransform="matrix(.68 -.733 .267 .248 .027 .743)" gradientUnits="objectBoundingBox"><stop offset="0" stop-color="#fff" stop-opacity="0"/><stop offset="0" stop-color="#fff" stop-opacity=".624"/><stop offset="1" stop-color="#fff" stop-opacity=".035"/><stop offset="1" stop-color="#fff" stop-opacity="0"/></radialGradient><filter id="a" x="0" y="0" width="530" height="327" filterUnits="userSpaceOnUse"><feOffset dy="10"/><feGaussianBlur stdDeviation="5" result="blur"/><feFlood flood-opacity=".161"/><feComposite operator="in" in2="blur"/><feComposite in="SourceGraphic"/></filter></defs><g data-name="skellyCSS Logo"><path d="M109.92 401.72a19.289 19.289 0 01-7-1.28 12.988 12.988 0 01-5.4-3.76l3.2-4.32a15.905 15.905 0 004.2 2.96 10.138 10.138 0 004.36 1.04 8.1 8.1 0 004.32-1.04 3.5 3.5 0 001.68-3.2 3.678 3.678 0 00-1.04-2.72 6.407 6.407 0 00-2.36-1.52q-1.32-.48-4.44-1.44-8.48-2.72-8.48-9.68a9.522 9.522 0 013.08-7.12q3.08-2.96 8.6-2.96a20.264 20.264 0 016.24.88 15.2 15.2 0 015.04 2.8l-2.96 4.56a9.088 9.088 0 00-3.24-2.16 11.219 11.219 0 00-3.72-.88 6.7 6.7 0 00-3.84 1.08 3.511 3.511 0 00-.56 5.44 6.652 6.652 0 002.16 1.44q1.12.44 4.4 1.48a16.9 16.9 0 016.36 3.52 7.662 7.662 0 012.28 5.84 10.338 10.338 0 01-3.36 7.92q-3.36 3.12-9.52 3.12zm35.04-16.64l-4.32 3.52V401h-7.44v-62h7.44v41.84l17.12-13.76 4.56 4-12.24 9.84L163.92 401h-8.72zm42.4 10.32a13.5 13.5 0 008.08-2.88l3.44 5.52a23.14 23.14 0 01-5.72 2.76 19.261 19.261 0 01-5.96 1 19.593 19.593 0 01-9.64-2.28 16.014 16.014 0 01-6.36-6.28 18.181 18.181 0 01-2.24-9.04 16.925 16.925 0 012.44-8.92 17.713 17.713 0 016.68-6.4 18.762 18.762 0 019.28-2.36 15.909 15.909 0 0110.84 3.8 19.512 19.512 0 015.96 10.6l-26.24 9.2a10.419 10.419 0 003.88 3.88 10.97 10.97 0 005.56 1.4zm-.56-22.96a9.8 9.8 0 00-7.52 3.2 11.546 11.546 0 00-2.96 8.16 15.913 15.913 0 00.08 1.84l19.28-7.12a11.007 11.007 0 00-3.4-4.4 8.765 8.765 0 00-5.48-1.68zM220.88 339v62h-7.44v-62zm20.4 0v62h-7.44v-62zm44.48 28.88l-21.36 49.04h-7.36l7.6-17.04-15.36-32h8.4l10.72 23.6 10.48-23.6zm52.32 28.8a34.442 34.442 0 01-7.08 3.4 27.021 27.021 0 01-9.32 1.56 30.611 30.611 0 01-15.64-3.92 27.1 27.1 0 01-10.4-10.56 29.951 29.951 0 01-3.64-14.64 31.98 31.98 0 013.68-15.4 27.227 27.227 0 0110.2-10.72 28.306 28.306 0 0114.76-3.88 31.412 31.412 0 019.12 1.28 31.856 31.856 0 017.6 3.36l-3.12 7.28a23.718 23.718 0 00-13.36-4.48 19.25 19.25 0 00-10.36 2.96 21.816 21.816 0 00-7.6 8.04 22.482 22.482 0 00-2.84 11.16 24.237 24.237 0 002.6 11.28 19.1 19.1 0 007.44 7.88 23.136 23.136 0 0024.68-1.56zm42.96-43.2a34.7 34.7 0 00-6.64-2.72 23.472 23.472 0 00-6.64-1.04 11.984 11.984 0 00-7.48 2.12 6.916 6.916 0 00-2.76 5.8 6.915 6.915 0 003.24 5.88 41.921 41.921 0 009.24 4.52 41.149 41.149 0 017.56 3.48 15.417 15.417 0 015.12 5.2 15.89 15.89 0 012.04 8.44 15.676 15.676 0 01-2.32 8.4 16.028 16.028 0 01-6.6 5.92 22.018 22.018 0 01-10.04 2.16 31.275 31.275 0 01-10.32-1.72 35.086 35.086 0 01-8.72-4.36l3.44-6.16a28.045 28.045 0 007.12 3.8 22.189 22.189 0 007.76 1.56 13.948 13.948 0 008.12-2.4 8.085 8.085 0 003.48-7.12 7.751 7.751 0 00-2.92-6.36 31.568 31.568 0 00-8.2-4.44 66.263 66.263 0 01-8.12-3.6 17.182 17.182 0 01-5.56-4.84 12.469 12.469 0 01-2.32-7.72 13.969 13.969 0 014.76-11q4.76-4.2 12.36-4.44a34 34 0 0117.36 4.64zm46.56 0a34.7 34.7 0 00-6.64-2.72 23.472 23.472 0 00-6.64-1.04 11.984 11.984 0 00-7.48 2.12 6.916 6.916 0 00-2.76 5.8 6.915 6.915 0 003.24 5.88 41.921 41.921 0 009.24 4.52 41.149 41.149 0 017.56 3.48 15.417 15.417 0 015.12 5.2 15.89 15.89 0 012.04 8.44 15.676 15.676 0 01-2.32 8.4 16.028 16.028 0 01-6.6 5.92 22.018 22.018 0 01-10.04 2.16 31.275 31.275 0 01-10.32-1.72 35.086 35.086 0 01-8.72-4.36l3.44-6.16a28.045 28.045 0 007.12 3.8 22.189 22.189 0 007.76 1.56 13.948 13.948 0 008.12-2.4 8.085 8.085 0 003.48-7.12 7.751 7.751 0 00-2.92-6.36 31.568 31.568 0 00-8.2-4.44 66.263 66.263 0 01-8.12-3.6 17.182 17.182 0 01-5.56-4.84 12.469 12.469 0 01-2.32-7.72 13.969 13.969 0 014.76-11q4.76-4.2 12.36-4.44a34 34 0 0117.36 4.64z" fill="#6e6e6e"/><g filter="url(#a)"><rect data-name="Rectangle 1" width="500" height="297" rx="26" transform="translate(15 5)" fill="#fefefe"/></g><rect data-name="Rectangle 2" width="229" height="48" rx="5" fill="#e2e2e2" transform="translate(37 41)"/><g transform="translate(37 113.828)" fill="#efefef"><rect data-name="Rectangle 3" width="455" height="29" rx="5"/><rect data-name="Rectangle 4" width="455" height="29" rx="5" transform="translate(1 41)"/><rect data-name="Rectangle 5" width="455" height="29" rx="5" transform="translate(0 82)"/><rect data-name="Rectangle 6" width="228" height="29" rx="5" transform="translate(0 123)"/></g><path transform="translate(41 41)" fill="url(#b)" d="M0 0h256v224H0z"/></g></svg>